<svg width="25" height="28" viewBox="0 0 25 28" fill="none" xmlns="http://www.w3.org/2000/svg">
<path d="M17.5 25V22.5H22.5V10H5V15H2.5V5C2.5 4.3125 2.74479 3.72396 3.23438 3.23438C3.72396 2.74479 4.3125 2.5 5 2.5H6.25V0H8.75V2.5H18.75V0H21.25V2.5H22.5C23.1875 2.5 23.776 2.74479 24.2656 3.23438C24.7552 3.72396 25 4.3125 25 5V22.5C25 23.1875 24.7552 23.776 24.2656 24.2656C23.776 24.7552 23.1875 25 22.5 25H17.5ZM8.75 27.5L7 25.75L10.2188 22.5H0V20H10.2188L7 16.75L8.75 15L15 21.25L8.75 27.5ZM5 7.5H22.5V5H5V7.5ZM5 7.5V5V7.5Z" fill="#006D4A"/>
</svg>
