<svg width="28" height="24" viewBox="0 0 28 24" fill="none" xmlns="http://www.w3.org/2000/svg">
<path d="M23.6875 17.375L21.75 15.4375C22.6667 14.5833 23.3854 13.5729 23.9062 12.4062C24.4271 11.2396 24.6875 10 24.6875 8.6875C24.6875 7.375 24.4271 6.14583 23.9062 5C23.3854 3.85417 22.6667 2.85417 21.75 2L23.6875 0C24.8542 1.10417 25.7812 2.40625 26.4688 3.90625C27.1562 5.40625 27.5 7 27.5 8.6875C27.5 10.375 27.1562 11.9688 26.4688 13.4688C25.7812 14.9688 24.8542 16.2708 23.6875 17.375ZM19.6875 13.375L17.6875 11.375C18.0625 11.0208 18.3646 10.6198 18.5938 10.1719C18.8229 9.72396 18.9375 9.22917 18.9375 8.6875C18.9375 8.14583 18.8229 7.65104 18.5938 7.20312C18.3646 6.75521 18.0625 6.35417 17.6875 6L19.6875 4C20.3542 4.60417 20.875 5.30729 21.25 6.10938C21.625 6.91146 21.8125 7.77083 21.8125 8.6875C21.8125 9.60417 21.625 10.4635 21.25 11.2656C20.875 12.0677 20.3542 12.7708 19.6875 13.375ZM10 13.6875C8.625 13.6875 7.44792 13.1979 6.46875 12.2188C5.48958 11.2396 5 10.0625 5 8.6875C5 7.3125 5.48958 6.13542 6.46875 5.15625C7.44792 4.17708 8.625 3.6875 10 3.6875C11.375 3.6875 12.5521 4.17708 13.5312 5.15625C14.5104 6.13542 15 7.3125 15 8.6875C15 10.0625 14.5104 11.2396 13.5312 12.2188C12.5521 13.1979 11.375 13.6875 10 13.6875ZM0 23.6875V20.1875C0 19.5 0.177083 18.8542 0.53125 18.25C0.885417 17.6458 1.375 17.1875 2 16.875C3.0625 16.3333 4.26042 15.875 5.59375 15.5C6.92708 15.125 8.39583 14.9375 10 14.9375C11.6042 14.9375 13.0729 15.125 14.4062 15.5C15.7396 15.875 16.9375 16.3333 18 16.875C18.625 17.1875 19.1146 17.6458 19.4688 18.25C19.8229 18.8542 20 19.5 20 20.1875V23.6875H0ZM2.5 21.1875H17.5V20.1875C17.5 19.9583 17.4427 19.75 17.3281 19.5625C17.2135 19.375 17.0625 19.2292 16.875 19.125C16.125 18.75 15.1615 18.375 13.9844 18C12.8073 17.625 11.4792 17.4375 10 17.4375C8.52083 17.4375 7.19271 17.625 6.01562 18C4.83854 18.375 3.875 18.75 3.125 19.125C2.9375 19.2292 2.78646 19.375 2.67188 19.5625C2.55729 19.75 2.5 19.9583 2.5 20.1875V21.1875ZM10 11.1875C10.6875 11.1875 11.276 10.9427 11.7656 10.4531C12.2552 9.96354 12.5 9.375 12.5 8.6875C12.5 8 12.2552 7.41146 11.7656 6.92188C11.276 6.43229 10.6875 6.1875 10 6.1875C9.3125 6.1875 8.72396 6.43229 8.23438 6.92188C7.74479 7.41146 7.5 8 7.5 8.6875C7.5 9.375 7.74479 9.96354 8.23438 10.4531C8.72396 10.9427 9.3125 11.1875 10 11.1875Z" fill="#006D4A"/>
</svg>
