<svg width="68" height="68" viewBox="0 0 68 68" fill="none" xmlns="http://www.w3.org/2000/svg">
<g filter="url(#filter0_d_152_2584)">
<rect x="2" y="1" width="64" height="64" rx="16" fill="white" shape-rendering="crispEdges"/>
<path d="M25.8677 45.5V40.125C24.6802 39.0417 23.7583 37.776 23.1021 36.3281C22.4458 34.8802 22.1177 33.3542 22.1177 31.75C22.1177 28.625 23.2114 25.9688 25.3989 23.7812C27.5864 21.5938 30.2427 20.5 33.3677 20.5C35.9718 20.5 38.2791 21.2656 40.2896 22.7969C42.3 24.3281 43.6073 26.3229 44.2114 28.7812L45.8364 35.1875C45.9406 35.5833 45.8677 35.9427 45.6177 36.2656C45.3677 36.5885 45.0343 36.75 44.6177 36.75H42.1177V40.5C42.1177 41.1875 41.8729 41.776 41.3833 42.2656C40.8937 42.7552 40.3052 43 39.6177 43H37.1177V45.5H34.6177V40.5H39.6177V34.25H42.9927L41.8052 29.4062C41.326 27.5104 40.3052 25.9688 38.7427 24.7812C37.1802 23.5938 35.3885 23 33.3677 23C30.951 23 28.8885 23.8438 27.1802 25.5312C25.4718 27.2188 24.6177 29.2708 24.6177 31.6875C24.6177 32.9375 24.8729 34.125 25.3833 35.25C25.8937 36.375 26.6177 37.375 27.5552 38.25L28.3677 39V45.5H25.8677ZM32.1177 36.75H34.6177L34.8052 35.1875C34.9718 35.125 35.1229 35.0521 35.2583 34.9688C35.3937 34.8854 35.5135 34.7917 35.6177 34.6875L37.0552 35.3125L38.3052 33.1875L37.0552 32.25C37.0968 32.0833 37.1177 31.9167 37.1177 31.75C37.1177 31.5833 37.0968 31.4167 37.0552 31.25L38.3052 30.3125L37.0552 28.1875L35.6177 28.8125C35.5135 28.7083 35.3937 28.6146 35.2583 28.5312C35.1229 28.4479 34.9718 28.375 34.8052 28.3125L34.6177 26.75H32.1177L31.9302 28.3125C31.7635 28.375 31.6125 28.4479 31.4771 28.5312C31.3416 28.6146 31.2218 28.7083 31.1177 28.8125L29.6802 28.1875L28.4302 30.3125L29.6802 31.25C29.6385 31.4167 29.6177 31.5833 29.6177 31.75C29.6177 31.9167 29.6385 32.0833 29.6802 32.25L28.4302 33.1875L29.6802 35.3125L31.1177 34.6875C31.2218 34.7917 31.3416 34.8854 31.4771 34.9688C31.6125 35.0521 31.7635 35.125 31.9302 35.1875L32.1177 36.75ZM33.3677 33.625C32.8468 33.625 32.4041 33.4427 32.0396 33.0781C31.675 32.7135 31.4927 32.2708 31.4927 31.75C31.4927 31.2292 31.675 30.7865 32.0396 30.4219C32.4041 30.0573 32.8468 29.875 33.3677 29.875C33.8885 29.875 34.3312 30.0573 34.6958 30.4219C35.0604 30.7865 35.2427 31.2292 35.2427 31.75C35.2427 32.2708 35.0604 32.7135 34.6958 33.0781C34.3312 33.4427 33.8885 33.625 33.3677 33.625Z" fill="#006D4A"/>
</g>
<defs>
<filter id="filter0_d_152_2584" x="0" y="0" width="68" height="68" filterUnits="userSpaceOnUse" color-interpolation-filters="sRGB">
<feFlood flood-opacity="0" result="BackgroundImageFix"/>
<feColorMatrix in="SourceAlpha" type="matrix" values="0 0 0 0 0 0 0 0 0 0 0 0 0 0 0 0 0 0 127 0" result="hardAlpha"/>
<feOffset dy="1"/>
<feGaussianBlur stdDeviation="1"/>
<feComposite in2="hardAlpha" operator="out"/>
<feColorMatrix type="matrix" values="0 0 0 0 0 0 0 0 0 0 0 0 0 0 0 0 0 0 0.05 0"/>
<feBlend mode="normal" in2="BackgroundImageFix" result="effect1_dropShadow_152_2584"/>
<feBlend mode="normal" in="SourceGraphic" in2="effect1_dropShadow_152_2584" result="shape"/>
</filter>
</defs>
</svg>
