<svg width="68" height="68" viewBox="0 0 68 68" fill="none" xmlns="http://www.w3.org/2000/svg">
<g filter="url(#filter0_d_152_2561)">
<rect x="2" y="1" width="64" height="64" rx="16" fill="white" shape-rendering="crispEdges"/>
<path d="M21.5 43V40.5H24.9062C23.8438 39.5833 23.0104 38.4792 22.4062 37.1875C21.8021 35.8958 21.5 34.5 21.5 33C21.5 30.6667 22.2083 28.6094 23.625 26.8281C25.0417 25.0469 26.8333 23.875 29 23.3125V25.9375C27.5417 26.4583 26.3438 27.3594 25.4062 28.6406C24.4688 29.9219 24 31.375 24 33C24 34.125 24.224 35.1615 24.6719 36.1094C25.1198 37.0573 25.7292 37.875 26.5 38.5625V35.5H29V43H21.5ZM35.25 43C34.2083 43 33.3229 42.6354 32.5938 41.9062C31.8646 41.1771 31.5 40.2917 31.5 39.25C31.5 38.25 31.8438 37.3906 32.5312 36.6719C33.2188 35.9531 34.0625 35.5729 35.0625 35.5312C35.4167 34.7812 35.9427 34.1719 36.6406 33.7031C37.3385 33.2344 38.125 33 39 33C40.1042 33 41.0573 33.3594 41.8594 34.0781C42.6615 34.7969 43.1458 35.6875 43.3125 36.75C44.1875 36.75 44.9375 37.0521 45.5625 37.6562C46.1875 38.2604 46.5 38.9896 46.5 39.8438C46.5 40.7188 46.1979 41.4635 45.5938 42.0781C44.9896 42.6927 44.25 43 43.375 43H35.25ZM38.875 31.75C38.7292 30.8958 38.4479 30.1042 38.0312 29.375C37.6146 28.6458 37.1042 28 36.5 27.4375V30.5H34V23H41.5V25.5H38.0938C38.9896 26.2917 39.724 27.2188 40.2969 28.2812C40.8698 29.3438 41.2396 30.5 41.4062 31.75H38.875ZM35.25 40.5H43.375C43.5417 40.5 43.6875 40.4375 43.8125 40.3125C43.9375 40.1875 44 40.0417 44 39.875C44 39.7083 43.9375 39.5625 43.8125 39.4375C43.6875 39.3125 43.5417 39.25 43.375 39.25H41.1875V37.6875C41.1875 37.0833 40.974 36.5677 40.5469 36.1406C40.1198 35.7135 39.6042 35.5 39 35.5C38.3958 35.5 37.8802 35.7135 37.4531 36.1406C37.026 36.5677 36.8125 37.0833 36.8125 37.6875V38H35.25C34.8958 38 34.599 38.1198 34.3594 38.3594C34.1198 38.599 34 38.8958 34 39.25C34 39.6042 34.1198 39.901 34.3594 40.1406C34.599 40.3802 34.8958 40.5 35.25 40.5Z" fill="#006D4A"/>
</g>
<defs>
<filter id="filter0_d_152_2561" x="0" y="0" width="68" height="68" filterUnits="userSpaceOnUse" color-interpolation-filters="sRGB">
<feFlood flood-opacity="0" result="BackgroundImageFix"/>
<feColorMatrix in="SourceAlpha" type="matrix" values="0 0 0 0 0 0 0 0 0 0 0 0 0 0 0 0 0 0 127 0" result="hardAlpha"/>
<feOffset dy="1"/>
<feGaussianBlur stdDeviation="1"/>
<feComposite in2="hardAlpha" operator="out"/>
<feColorMatrix type="matrix" values="0 0 0 0 0 0 0 0 0 0 0 0 0 0 0 0 0 0 0.05 0"/>
<feBlend mode="normal" in2="BackgroundImageFix" result="effect1_dropShadow_152_2561"/>
<feBlend mode="normal" in="SourceGraphic" in2="effect1_dropShadow_152_2561" result="shape"/>
</filter>
</defs>
</svg>
