<svg width="40" height="40" viewBox="0 0 40 40" fill="none" xmlns="http://www.w3.org/2000/svg">
<rect width="40" height="40" rx="20" fill="#EFF5EF"/>
<path d="M27.5 27.5L24.5 24.5H17C16.5875 24.5 16.2344 24.3531 15.9406 24.0594C15.6469 23.7656 15.5 23.4125 15.5 23V22.25H23.75C24.1625 22.25 24.5156 22.1031 24.8094 21.8094C25.1031 21.5156 25.25 21.1625 25.25 20.75V15.5H26C26.4125 15.5 26.7656 15.6469 27.0594 15.9406C27.3531 16.2344 27.5 16.5875 27.5 17V27.5ZM14 20.1312L14.8812 19.25H22.25V14H14V20.1312ZM12.5 23.75V14C12.5 13.5875 12.6469 13.2344 12.9406 12.9406C13.2344 12.6469 13.5875 12.5 14 12.5H22.25C22.6625 12.5 23.0156 12.6469 23.3094 12.9406C23.6031 13.2344 23.75 13.5875 23.75 14V19.25C23.75 19.6625 23.6031 20.0156 23.3094 20.3094C23.0156 20.6031 22.6625 20.75 22.25 20.75H15.5L12.5 23.75ZM14 19.25V14V19.25Z" fill="#064E3B"/>
</svg>
