<svg width="40" height="40" viewBox="0 0 40 40" fill="none" xmlns="http://www.w3.org/2000/svg">
<rect width="40" height="40" rx="20" fill="#EFF5EF"/>
<path d="M20 27.5C18.9625 27.5 17.9875 27.3031 17.075 26.9094C16.1625 26.5156 15.3687 25.9812 14.6937 25.3062C14.0187 24.6312 13.4844 23.8375 13.0906 22.925C12.6969 22.0125 12.5 21.0375 12.5 20C12.5 18.9625 12.6969 17.9875 13.0906 17.075C13.4844 16.1625 14.0187 15.3687 14.6937 14.6937C15.3687 14.0187 16.1625 13.4844 17.075 13.0906C17.9875 12.6969 18.9625 12.5 20 12.5C21.0375 12.5 22.0125 12.6969 22.925 13.0906C23.8375 13.4844 24.6312 14.0187 25.3062 14.6937C25.9812 15.3687 26.5156 16.1625 26.9094 17.075C27.3031 17.9875 27.5 18.9625 27.5 20C27.5 21.0375 27.3031 22.0125 26.9094 22.925C26.5156 23.8375 25.9812 24.6312 25.3062 25.3062C24.6312 25.9812 23.8375 26.5156 22.925 26.9094C22.0125 27.3031 21.0375 27.5 20 27.5ZM19.25 25.9625V24.5C18.8375 24.5 18.4844 24.3531 18.1906 24.0594C17.8969 23.7656 17.75 23.4125 17.75 23V22.25L14.15 18.65C14.1125 18.875 14.0781 19.1 14.0469 19.325C14.0156 19.55 14 19.775 14 20C14 21.5125 14.4969 22.8375 15.4906 23.975C16.4844 25.1125 17.7375 25.775 19.25 25.9625ZM24.425 24.05C24.9375 23.4875 25.3281 22.8594 25.5969 22.1656C25.8656 21.4719 26 20.75 26 20C26 18.775 25.6594 17.6562 24.9781 16.6438C24.2969 15.6313 23.3875 14.9 22.25 14.45V14.75C22.25 15.1625 22.1031 15.5156 21.8094 15.8094C21.5156 16.1031 21.1625 16.25 20.75 16.25H19.25V17.75C19.25 17.9625 19.1781 18.1406 19.0344 18.2844C18.8906 18.4281 18.7125 18.5 18.5 18.5H17V20H21.5C21.7125 20 21.8906 20.0719 22.0344 20.2156C22.1781 20.3594 22.25 20.5375 22.25 20.75V23H23C23.325 23 23.6188 23.0969 23.8813 23.2906C24.1438 23.4844 24.325 23.7375 24.425 24.05Z" fill="#064E3B"/>
</svg>
