<svg width="1378" height="285" viewBox="0 0 1378 285" fill="none" xmlns="http://www.w3.org/2000/svg">
<path opacity="0.63" d="M5.81145e-07 231.4V3.90038H57.85L122.525 154.7H123.825L187.85 3.90038H245.375V231.4H201.5V72.8004H200.2L144.95 198.9H99.775L45.175 72.8004H43.875V231.4H5.81145e-07ZM273.685 231.4V70.2004H317.56V231.4H273.685ZM295.785 49.7254C287.769 49.7254 281.16 47.4504 275.96 42.9004C270.977 38.1337 268.485 32.1754 268.485 25.0254C268.485 17.8754 270.977 11.917 275.96 7.15037C281.16 2.38372 287.769 0.000386596 295.785 0.000386596C303.802 0.000386596 310.302 2.38372 315.285 7.15037C320.269 11.917 322.76 17.8754 322.76 25.0254C322.76 31.9587 320.269 37.8087 315.285 42.5754C310.302 47.3421 303.802 49.7254 295.785 49.7254ZM424.208 300.3C408.825 300.3 395.283 298.459 383.583 294.775C372.1 291.092 363.108 285.567 356.608 278.2C350.325 271.05 347.183 262.384 347.183 252.2C347.183 244.617 349.133 237.684 353.033 231.4C356.933 224.9 362.675 219.05 370.258 213.85C377.841 208.434 387.158 203.775 398.208 199.875L414.133 221.65C404.6 224.9 397.666 228.8 393.333 233.35C389 237.9 386.833 243.1 386.833 248.95C386.833 253.284 388.35 256.967 391.383 260C394.633 263.034 399.075 265.309 404.708 266.825C410.341 268.559 416.841 269.425 424.208 269.425C431.575 269.425 437.75 268.559 442.733 266.825C447.716 265.092 451.508 262.6 454.108 259.35C456.708 256.317 458.008 252.742 458.008 248.625C458.008 242.775 455.95 238.225 451.833 234.975C447.716 231.942 439.7 229.992 427.783 229.125C416.733 228.259 406.983 227.067 398.533 225.55C390.083 223.817 382.608 221.867 376.108 219.7C369.825 217.317 364.408 214.717 359.858 211.9C355.308 209.084 351.625 206.267 348.808 203.45V195.975L383.583 160.225L409.258 169.975L374.158 208.975L385.858 189.475C388.025 190.342 390.3 191.209 392.683 192.075C395.066 192.942 397.991 193.809 401.458 194.675C405.141 195.542 409.691 196.409 415.108 197.275C420.741 197.925 427.783 198.684 436.233 199.55C450.533 200.634 462.233 203.125 471.333 207.025C480.433 210.925 487.15 216.234 491.483 222.95C495.816 229.667 497.983 237.9 497.983 247.65C497.983 256.1 495.275 264.334 489.858 272.35C484.658 280.584 476.641 287.3 465.808 292.5C454.975 297.7 441.108 300.3 424.208 300.3ZM424.533 183.625C410.883 183.625 399.075 181.025 389.108 175.825C379.358 170.625 371.775 163.584 366.358 154.7C361.158 145.817 358.558 135.959 358.558 125.125C358.558 114.292 361.158 104.434 366.358 95.5504C371.775 86.6671 379.358 79.6254 389.108 74.4254C399.075 69.0087 410.883 66.3004 424.533 66.3004C438.183 66.3004 449.883 69.0087 459.633 74.4254C469.6 79.6254 477.183 86.6671 482.383 95.5504C487.583 104.434 490.183 114.292 490.183 125.125C490.183 135.959 487.583 145.817 482.383 154.7C477.183 163.584 469.6 170.625 459.633 175.825C449.883 181.025 438.183 183.625 424.533 183.625ZM424.208 151.775C432.875 151.775 439.808 149.609 445.008 145.275C450.425 140.725 453.133 134.009 453.133 125.125C453.133 116.242 450.425 109.634 445.008 105.3C439.808 100.75 432.983 98.4754 424.533 98.4754C415.866 98.4754 408.825 100.75 403.408 105.3C398.208 109.634 395.608 116.242 395.608 125.125C395.608 134.009 398.208 140.725 403.408 145.275C408.825 149.609 415.758 151.775 424.208 151.775ZM450.858 99.7754L443.708 70.2004H511.308V93.9254L450.858 99.7754ZM532.582 231.4V70.2004H569.957L573.857 105.625H575.157C579.924 94.142 585.124 85.692 590.757 80.2754C596.391 74.642 602.782 70.9587 609.932 69.2254C617.299 67.2754 625.532 66.3004 634.632 66.3004V112.775H622.607C615.241 112.775 608.632 113.642 602.782 115.375C597.149 116.892 592.382 119.492 588.482 123.175C584.582 126.642 581.549 131.3 579.382 137.15C577.432 143 576.457 150.042 576.457 158.275V231.4H532.582ZM701.729 235.3C688.946 235.3 678.329 233.134 669.879 228.8C661.646 224.467 655.579 218.617 651.679 211.25C647.779 203.884 645.829 195.759 645.829 186.875C645.829 176.909 648.321 168.134 653.304 160.55C658.504 152.967 666.304 147.117 676.704 143C687.104 138.667 700.213 136.5 716.029 136.5H756.654C756.654 128.484 755.463 121.875 753.079 116.675C750.913 111.475 747.446 107.575 742.679 104.975C738.129 102.375 732.279 101.075 725.129 101.075C716.679 101.075 709.421 103.025 703.354 106.925C697.504 110.609 693.821 116.459 692.304 124.475H649.729C651.029 112.559 654.929 102.267 661.429 93.6004C668.146 84.9337 676.921 78.2171 687.754 73.4504C698.804 68.6837 711.263 66.3004 725.129 66.3004C740.729 66.3004 754.163 68.9004 765.429 74.1004C776.696 79.0837 785.363 86.5587 791.429 96.5254C797.496 106.275 800.529 118.192 800.529 132.275V231.4H764.129L759.579 206.375H758.279C754.813 211.142 751.021 215.367 746.904 219.05C743.004 222.734 738.671 225.767 733.904 228.15C729.138 230.534 724.046 232.267 718.629 233.35C713.213 234.65 707.579 235.3 701.729 235.3ZM716.029 201.5C722.096 201.5 727.296 200.525 731.629 198.575C736.179 196.409 740.079 193.592 743.329 190.125C746.579 186.659 749.071 182.65 750.804 178.1C752.754 173.334 754.054 168.459 754.704 163.475H720.904C714.188 163.475 708.663 164.342 704.329 166.075C700.213 167.592 697.179 169.867 695.229 172.9C693.279 175.717 692.304 179.075 692.304 182.975C692.304 186.875 693.279 190.234 695.229 193.05C697.179 195.867 699.996 198.034 703.679 199.55C707.363 200.85 711.479 201.5 716.029 201.5ZM896.155 231.4C884.672 231.4 874.597 229.667 865.93 226.2C857.48 222.517 850.872 216.559 846.105 208.325C841.338 199.875 838.955 188.392 838.955 173.875V105.3H811.33V70.2004H838.955L843.83 26.3254H882.83V70.2004H925.73V105.3H882.83V174.525C882.83 182.325 884.455 187.742 887.705 190.775C890.955 193.592 896.48 195 904.28 195H924.755V231.4H896.155ZM1015.33 235.3C998.861 235.3 984.236 231.834 971.453 224.9C958.886 217.967 949.028 208.217 941.878 195.65C934.728 183.084 931.153 168.675 931.153 152.425C931.153 135.525 934.62 120.684 941.553 107.9C948.703 94.9004 958.561 84.717 971.128 77.3504C983.911 69.9837 998.645 66.3004 1015.33 66.3004C1031.58 66.3004 1045.77 69.7671 1057.9 76.7004C1070.04 83.6337 1079.57 93.167 1086.5 105.3C1093.44 117.217 1096.9 130.759 1096.9 145.925C1096.9 148.092 1096.79 150.584 1096.58 153.4C1096.58 156 1096.47 158.709 1096.25 161.525H962.353V134.55H1052.38C1051.73 124.367 1047.94 116.242 1041 110.175C1034.29 104.109 1025.84 101.075 1015.65 101.075C1008.07 101.075 1001.14 102.809 994.853 106.275C988.57 109.525 983.586 114.617 979.903 121.55C976.22 128.267 974.378 136.825 974.378 147.225V156.65C974.378 165.534 976.111 173.225 979.578 179.725C983.045 186.009 987.811 190.884 993.878 194.35C1000.16 197.817 1007.2 199.55 1015 199.55C1023.02 199.55 1029.74 197.817 1035.15 194.35C1040.57 190.667 1044.69 186.009 1047.5 180.375H1092.03C1088.99 190.559 1083.9 199.875 1076.75 208.325C1069.6 216.559 1060.83 223.167 1050.43 228.15C1040.03 232.917 1028.33 235.3 1015.33 235.3ZM1104.63 231.4L1176.78 3.90038H1248.6L1320.43 231.4H1273.95L1213.5 29.5754H1212.2L1150.45 231.4H1104.63ZM1141.35 166.075L1152.73 131.95H1268.75L1280.13 166.075H1141.35ZM1333.78 231.4V3.90038H1377.66V231.4H1333.78Z" fill="url(#paint0_linear_289_1045)"/>
<defs>
<linearGradient id="paint0_linear_289_1045" x1="705.375" y1="-41.5996" x2="705.375" y2="282.4" gradientUnits="userSpaceOnUse">
<stop stop-color="#2C277F"/>
<stop offset="1" stop-color="#4F46E5" stop-opacity="0.03"/>
</linearGradient>
</defs>
</svg>
