<svg width="1276" height="279" viewBox="0 0 1276 279" fill="none" xmlns="http://www.w3.org/2000/svg">
<path opacity="0.47" d="M7.86632e-05 214.312V3.61151H53.5781L113.477 143.276H114.681L173.978 3.61151H227.255V214.312H186.62V67.4235H185.416L134.246 184.212H92.4071L41.8391 67.4235H40.6351V214.312H7.86632e-05ZM253.452 214.312V65.0155H294.087V214.312H253.452ZM273.92 46.0525C266.496 46.0525 260.375 43.9455 255.559 39.7315C250.944 35.3168 248.636 29.7985 248.636 23.1765C248.636 16.5545 250.944 11.0362 255.559 6.62151C260.375 2.20685 266.496 -0.000480294 273.92 -0.000480294C281.345 -0.000480294 287.365 2.20685 291.98 6.62151C296.596 11.0362 298.903 16.5545 298.903 23.1765C298.903 29.5978 296.596 35.0158 291.98 39.4305C287.365 43.8452 281.345 46.0525 273.92 46.0525ZM392.838 278.124C378.59 278.124 366.049 276.418 355.213 273.007C344.577 269.595 336.25 264.478 330.23 257.656C324.41 251.034 321.501 243.007 321.501 233.576C321.501 226.552 323.307 220.131 326.919 214.312C330.531 208.292 335.848 202.874 342.872 198.058C349.895 193.041 358.524 188.727 368.758 185.115L383.507 205.282C374.677 208.292 368.256 211.904 364.243 216.118C360.229 220.332 358.223 225.148 358.223 230.566C358.223 234.579 359.627 237.99 362.437 240.8C365.447 243.609 369.56 245.716 374.778 247.121C379.995 248.726 386.015 249.529 392.838 249.529C399.66 249.529 405.379 248.726 409.995 247.121C414.61 245.515 418.122 243.208 420.53 240.198C422.938 237.388 424.142 234.077 424.142 230.265C424.142 224.847 422.235 220.633 418.423 217.623C414.61 214.813 407.185 213.007 396.149 212.205C385.915 211.402 376.885 210.298 369.059 208.894C361.233 207.288 354.31 205.482 348.29 203.476C342.47 201.268 337.454 198.86 333.24 196.252C329.026 193.643 325.614 191.034 323.006 188.426V181.503L355.213 148.393L378.992 157.423L346.484 193.543L357.32 175.483C359.326 176.285 361.433 177.088 363.641 177.891C365.848 178.693 368.557 179.496 371.768 180.299C375.179 181.101 379.393 181.904 384.41 182.707C389.627 183.309 396.149 184.011 403.975 184.814C417.219 185.817 428.055 188.125 436.483 191.737C444.911 195.349 451.131 200.265 455.145 206.486C459.158 212.706 461.165 220.332 461.165 229.362C461.165 237.188 458.656 244.813 453.64 252.238C448.824 259.863 441.399 266.084 431.366 270.9C421.332 275.716 408.49 278.124 392.838 278.124ZM393.139 170.065C380.497 170.065 369.56 167.657 360.33 162.841C351.3 158.025 344.276 151.503 339.26 143.276C334.444 135.048 332.036 125.918 332.036 115.885C332.036 105.851 334.444 96.7209 339.26 88.4935C344.276 80.2662 351.3 73.7445 360.33 68.9285C369.56 63.9119 380.497 61.4035 393.139 61.4035C405.781 61.4035 416.617 63.9119 425.647 68.9285C434.877 73.7445 441.901 80.2662 446.717 88.4935C451.533 96.7209 453.941 105.851 453.941 115.885C453.941 125.918 451.533 135.048 446.717 143.276C441.901 151.503 434.877 158.025 425.647 162.841C416.617 167.657 405.781 170.065 393.139 170.065ZM392.838 140.567C400.864 140.567 407.286 138.56 412.102 134.547C417.118 130.333 419.627 124.112 419.627 115.885C419.627 107.657 417.118 101.537 412.102 97.5235C407.286 93.3095 400.965 91.2025 393.139 91.2025C385.112 91.2025 378.59 93.3095 373.574 97.5235C368.758 101.537 366.35 107.657 366.35 115.885C366.35 124.112 368.758 130.333 373.574 134.547C378.59 138.56 385.012 140.567 392.838 140.567ZM417.52 92.4065L410.898 65.0155H473.506V86.9885L417.52 92.4065ZM493.187 214.312V65.0155H527.802L531.414 97.8245H532.618C537.033 87.1892 541.849 79.3632 547.066 74.3465C552.283 69.1292 558.203 65.7179 564.825 64.1125C571.648 62.3065 579.273 61.4035 587.701 61.4035V104.447H576.564C569.741 104.447 563.621 105.249 558.203 106.855C552.986 108.259 548.571 110.667 544.959 114.079C541.347 117.289 538.538 121.604 536.531 127.022C534.725 132.44 533.822 138.961 533.822 146.587V214.312H493.187ZM649.821 217.924C637.981 217.924 628.149 215.917 620.323 211.904C612.697 207.89 607.079 202.472 603.467 195.65C599.855 188.827 598.049 181.302 598.049 173.075C598.049 163.844 600.356 155.717 604.972 148.694C609.788 141.67 617.012 136.252 626.644 132.44C636.276 128.426 648.416 126.42 663.065 126.42H700.69C700.69 118.995 699.586 112.875 697.379 108.059C695.372 103.243 692.161 99.6305 687.747 97.2225C683.533 94.8145 678.115 93.6105 671.493 93.6105C663.667 93.6105 656.944 95.4165 651.326 99.0285C645.908 102.44 642.496 107.858 641.092 115.283H601.661C602.865 104.246 606.477 94.7142 612.497 86.6875C618.717 78.6609 626.844 72.4402 636.878 68.0255C647.112 63.6109 658.65 61.4035 671.493 61.4035C685.941 61.4035 698.382 63.8115 708.817 68.6275C719.251 73.2428 727.278 80.1658 732.897 89.3965C738.515 98.4265 741.325 109.463 741.325 122.507V214.312H707.613L703.399 191.135H702.195C698.984 195.549 695.472 199.462 691.66 202.874C688.048 206.285 684.034 209.094 679.62 211.302C675.205 213.509 670.489 215.114 665.473 216.118C660.456 217.322 655.239 217.924 649.821 217.924ZM663.065 186.62C668.683 186.62 673.499 185.717 677.513 183.911C681.727 181.904 685.339 179.295 688.349 176.085C691.359 172.874 693.666 169.162 695.272 164.948C697.078 160.533 698.282 156.018 698.884 151.403H667.58C661.359 151.403 656.242 152.205 652.229 153.811C648.416 155.215 645.607 157.322 643.801 160.132C641.995 162.74 641.092 165.851 641.092 169.463C641.092 173.075 641.995 176.185 643.801 178.794C645.607 181.402 648.215 183.409 651.627 184.814C655.038 186.018 658.851 186.62 663.065 186.62ZM829.867 214.312C819.231 214.312 809.9 212.706 801.874 209.496C794.048 206.084 787.927 200.566 783.513 192.941C779.098 185.115 776.891 174.479 776.891 161.035V97.5235H751.306V65.0155H776.891L781.406 24.3805H817.526V65.0155H857.258V97.5235H817.526V161.637C817.526 168.861 819.031 173.877 822.041 176.687C825.051 179.295 830.168 180.6 837.392 180.6H856.355V214.312H829.867ZM940.217 217.924C924.967 217.924 911.422 214.713 899.582 208.292C887.944 201.87 878.813 192.84 872.191 181.202C865.569 169.563 862.258 156.219 862.258 141.169C862.258 125.517 865.469 111.771 871.89 99.9315C878.512 87.8915 887.643 78.4602 899.281 71.6375C911.121 64.8148 924.766 61.4035 940.217 61.4035C955.267 61.4035 968.411 64.6142 979.648 71.0355C990.886 77.4568 999.715 86.2862 1006.14 97.5235C1012.56 108.56 1015.77 121.102 1015.77 135.149C1015.77 137.155 1015.67 139.463 1015.47 142.072C1015.47 144.48 1015.37 146.988 1015.17 149.597H891.154V124.614H974.531C973.929 115.182 970.418 107.657 963.996 102.039C957.776 96.4198 949.95 93.6105 940.518 93.6105C933.495 93.6105 927.074 95.2159 921.254 98.4265C915.435 101.437 910.82 106.152 907.408 112.574C903.997 118.794 902.291 126.721 902.291 136.353V145.082C902.291 153.309 903.897 160.433 907.107 166.453C910.318 172.272 914.733 176.787 920.351 179.998C926.171 183.208 932.692 184.814 939.916 184.814C947.341 184.814 953.562 183.208 958.578 179.998C963.595 176.586 967.408 172.272 970.016 167.055H1011.25C1008.44 176.486 1003.73 185.115 997.106 192.941C990.484 200.566 982.357 206.686 972.725 211.302C963.093 215.716 952.257 217.924 940.217 217.924ZM1022.9 214.312L1089.72 3.61151H1156.24L1222.76 214.312H1179.72L1123.73 27.3905H1122.53L1065.34 214.312H1022.9ZM1056.91 153.811L1067.45 122.206H1174.9L1185.44 153.811H1056.91ZM1235.11 214.312V3.61151H1275.74V214.312H1235.11Z" fill="url(#paint0_linear_129_4437)" fill-opacity="0.28"/>
<defs>
<linearGradient id="paint0_linear_129_4437" x1="638.455" y1="67.3115" x2="637.955" y2="240.312" gradientUnits="userSpaceOnUse">
<stop stop-color="white"/>
<stop offset="1" stop-color="#453EAF" stop-opacity="0.13"/>
</linearGradient>
</defs>
</svg>
